<svg xmlns="http://www.w3.org/2000/svg" width="532" height="478" fill="none"><path fill="url(#a)" fill-opacity=".9" stroke="#0D3CF1" d="M191.5 362.051h262c13.255 0 24-10.745 24-24v-199.68c0-13.255-10.745-24-24-24h-262c-13.255 0-24 10.745-24 24v199.68c0 13.255 10.745 24 24 24Z"/><path fill="url(#b)" d="m394.576 75.6049 1.665-1.8643-1.565-1.3989-1.649 1.3004 1.549 1.9628Zm14.097 12.5952-1.666 1.8643 3.085 2.7563 1.006-4.0129-2.425-.6077ZM420.501 41l1.075-2.2572-2.758-1.313-.742 2.9625 2.425.6077Zm21 10-1.075 2.2572 1.378.656 1.213-.9254L441.501 51Zm61.478-44.66647c.184-1.36837-.776-2.62698-2.144-2.81118L478.536.520578c-1.369-.184203-2.627.775752-2.812 2.144122-.184 1.36837.776 2.62698 2.145 2.81118l19.821 2.66824-2.668 19.82118c-.185 1.3684.775 2.627 2.144 2.8112 1.368.1842 2.627-.7757 2.811-2.1441l3.002-22.29887ZM301.306 152.366l94.818-74.7984-3.097-3.9255-94.818 74.7989 3.097 3.925Zm91.604-74.8968 14.097 12.5952 3.332-3.7286-14.098-12.5952-3.331 3.7286Zm18.188 11.3386 11.828-47.2001-4.85-1.2154-11.828 47.2001 4.85 1.2154Zm8.328-45.5506 21 10 2.15-4.5144-21-10-2.15 4.5144Zm23.591 9.7306 59-44.99999-3.032-3.97562-59 45.00001 3.032 3.9756Z"/><path stroke="#0D3CF1" stroke-linecap="round" d="M462.617 250.695h-48.536"/><path fill="#C6D9FF" stroke="#0D3CF1" stroke-width="1.1315" d="m277.95 46.155.021-.0054.02-.0069c16.45-5.6263 31.719-2.2881 44.458 7.0181 12.755 9.3188 22.982 24.6341 29.245 42.9458 6.268 18.3254 8.061 36.2344 4.187 50.9444-3.867 14.681-13.382 26.206-29.835 31.833-24.405 8.347-44.729 6.96-60.496-1.024-15.771-7.986-27.06-22.614-33.313-40.896-6.251-18.278-6.229-38.0224 1.048-54.6645 7.27-16.6261 21.799-30.2018 44.665-36.1445Z"/><path fill="#C1D6FF" stroke="#0D3CF1" stroke-width="1.1315" d="M363.478 91.5848c12.494 36.5312-4.484 75.3232-37.789 86.7142-33.305 11.391-70.483-8.879-82.978-45.409-12.494-36.5312 4.484-75.3236 37.789-86.7146 33.305-11.391 70.484 8.8786 82.978 45.4094Z"/><path fill="#EAF1FF" stroke="url(#c)" stroke-width="1.1315" d="M360.037 93.4102c11.627 33.9918-4.205 70.0958-35.23 80.7068-31.025 10.611-65.651-8.235-77.277-42.227-11.626-33.9922 4.206-70.0953 35.231-80.7064 31.025-10.6112 65.65 8.2343 77.276 42.2266Z"/><path fill="#0D3CF1" d="M313.085 133.51c2.932-1.172 5.181-2.921 6.748-5.248 1.595-2.39 2.392-5.18 2.393-8.368l1.319.111c.027 3.389-.821 6.385-2.544 8.986-1.741 2.555-4.215 4.474-7.421 5.756-4.81 1.923-9.437 1.78-13.879-.429-4.443-2.209-8.239-6.19-11.389-11.944l-6.528 2.61-.495-1.237 6.391-2.555c-1.374-2.638-2.473-5.387-3.296-8.245l-6.391 2.554-.494-1.237 6.528-2.609c-1.685-6.34-1.679-11.8409.017-16.5035 1.696-4.6626 4.949-7.9552 9.758-9.878 3.207-1.2819 6.331-1.5743 9.372-.8775 3.023.6511 5.684 2.1907 7.983 4.6189l-.921 1.0854c-2.152-2.3274-4.621-3.7845-7.406-4.3714-2.757-.651-5.601-.3905-8.533.7814-4.306 1.7214-7.261 4.7622-8.865 9.1225-1.559 4.3419-1.569 9.4992-.031 15.4732l20.27-8.103.495 1.236-20.408 8.158c.824 2.859 1.922 5.607 3.296 8.246l20.408-8.158.494 1.237-20.27 8.103c3.004 5.387 6.566 9.116 10.688 11.188 4.168 2.053 8.405 2.218 12.711.497Z"/><path stroke="#0D3CF1" stroke-width="1.1315" d="m254.156 64.3987-10.863 2.0489M245.761 77.5113l-11.012.9744M240.847 90.181l-11.012.9744M238.769 104.427l-11.012.974M238.921 117.5l-11.011.974M241.859 130.246l-11.827 1.3M246.777 143.319l-11.827 1.299M254.095 154.465l-13.231 1.407M261.427 162.694l-13.462 1.527M272.049 171.126l-14.952 1.718M284.511 177.196l-16.118 2.218"/><path fill="url(#d)" stroke="#0D3CF1" d="M413.582 417.919V193.345c0-10.772-7.176-20.224-17.552-23.118l-198.083-55.242c-15.298-4.266-30.447 7.236-30.447 23.118v201.315c0 9.842 6.008 18.686 15.158 22.312l198.082 78.501c15.755 6.244 32.842-5.365 32.842-22.312Z"/><path fill="url(#e)" stroke="url(#f)" d="M384.32 298.155c-1.056 9.776-10.644 16.838-21.506 15.664-10.863-1.173-18.722-10.119-17.666-19.896 1.056-9.777 10.644-16.838 21.507-15.665 10.862 1.174 18.721 10.12 17.665 19.897Z"/><rect width="87" height="84.28" x="446.389" y="145.657" fill="url(#g)" rx="42.14" transform="rotate(15 446.389 145.657)"/><path fill="#0D3CF1" d="M469.445 190.558c-2.886-.773-5.023-2.418-6.411-4.935-1.331-2.553-1.595-5.331-.79-8.333.804-3.002 2.415-5.252 4.831-6.749 2.43-1.545 5.11-1.925 8.04-1.14 2.886.773 4.995 2.436 6.326 4.989 1.388 2.517 1.68 5.277.875 8.279-.804 3.002-2.421 5.275-4.85 6.821-2.417 1.497-5.091 1.853-8.021 1.068Zm-5.178-5.601c1.146 2.197 2.987 3.635 5.523 4.315 2.537.679 4.85.354 6.941-.975 2.134-1.318 3.558-3.311 4.273-5.98.703-2.621.466-5.059-.711-7.315-1.146-2.197-2.987-3.635-5.523-4.315-2.537-.679-4.85-.354-6.941.975-2.147 1.366-3.571 3.359-4.274 5.98-.702 2.621-.465 5.059.712 7.315Zm-7.557 28.466-.812-.907 42.33-30.717.877.925-42.395 30.699Zm31.133 11.33c-2.416 1.498-5.068 1.86-7.954 1.086-2.886-.773-5.024-2.418-6.411-4.935-1.332-2.553-1.595-5.331-.791-8.333.804-3.002 2.415-5.252 4.832-6.749 2.429-1.545 5.109-1.925 8.039-1.14 2.886.773 4.995 2.436 6.327 4.989 1.388 2.517 1.679 5.277.875 8.279-.792 2.954-2.431 5.222-4.917 6.803Zm-13.133-4.515c1.146 2.197 2.987 3.635 5.524 4.315 2.536.679 4.849.355 6.94-.975 2.147-1.366 3.572-3.359 4.274-5.98.702-2.621.465-5.059-.712-7.315-1.145-2.197-2.986-3.635-5.523-4.315-2.536-.679-4.85-.354-6.94.975-2.147 1.366-3.572 3.359-4.274 5.98-.702 2.621-.465 5.059.711 7.315Z"/><rect width="87" height="84.28" x="446.389" y="145.657" stroke="url(#h)" rx="42.14" transform="rotate(15 446.389 145.657)"/><path fill="#0D3CF1" d="M187.972 177.472c2.334 3.731 6.003 6.211 10.26 6.885 4.139.652 8.513-.568 12.131-3.576 7.598-6.63 11.409-10.012 19.007-16.642 1.856-1.427 4.055-2.103 6.171-1.7 2.141.271 4.08 1.599 5.306 3.476 1.225 1.877 1.62 4.28 1.142 6.791-.479 2.51-1.73 4.599-3.585 6.026-1.856 1.426-3.938 2.125-6.079 1.854-2.14-.271-3.962-1.577-5.07-3.431l-.093-.155-.092-.155-.092-.154-.093-.155-.092-.154c-.118-.023-.092-.155-.092-.155l-.093-.154c-.117-.023-.092-.155-.092-.155-.118-.022-.093-.154-.21-.177-.118-.022-.092-.154-.092-.154-.118-.023-.093-.155-.21-.177-.118-.023-.118-.023-.093-.155-.117-.022-.092-.154-.21-.177l-.117-.022c-.118-.022-.118-.022-.235-.045l-.118-.022c-.117-.023-.235-.045-.352-.067-.118-.023-.235-.045-.353-.068l-.117-.022s-.236-.045-.261.087l-.117-.022c-.118-.023-.143.11-.26.087-.118-.022-.118-.022-.143.11-.118-.022-.143.11-.26.087-.118-.022-.143.11-.143.11-.118-.022-.143.11-.26.087-.118-.022-.143.11-.143.11-.143.11-.143.11-.26.087l-.143.11-.143.11-.143.11-.142.109-.143.11-.143.11c-2.191 1.91-3.358 2.92-5.549 4.83-1.763 1.581-2.149 4.246-.924 6.123 1.226 1.877 3.745 2.083 5.508.502 1.024-.9 1.595-1.339 2.619-2.24 1.864 1.725 4.299 3.011 7.12 3.548 4.281.543 8.538-.7 12.131-3.575 3.593-2.876 6.095-7.054 7.002-11.811.881-4.625.067-9.299-2.267-13.03s-5.885-6.188-10.167-6.73c-4.139-.652-8.513.568-12.106 3.443l-.143.11-.143.11c-7.598 6.63-11.384 9.88-18.982 16.51-1.855 1.427-4.055 2.103-6.17 1.7-2.141-.271-4.081-1.6-5.306-3.476-2.519-4.041-1.411-9.854 2.443-12.817 1.855-1.426 3.937-2.125 6.078-1.854 2.141.271 3.963 1.577 5.071 3.431l.092.155.093.154s.117.023.092.155l.092.155.093.154c.092.155.092.155.209.177.118.022.093.155.093.155.117.022.092.154.21.176.117.023.092.155.092.155.118.022.092.155.21.177.117.022.092.154.21.177.117.022.117.022.092.154.118.023.118.023.21.177l.118.023c.117.022.117.022.235.045.117.022.117.022.235.044.117.023.117.023.235.045.117.023.117.023.235.045.117.022.117.022.235.045.118.022.118.022.235.045.118.022.118.022.235.044.118.023.118.023.26-.087.118.023.118.023.261-.087.117.022.142-.11.26-.088.117.023.143-.109.26-.087.118.023.143-.11.143-.11.117.023.143-.109.26-.087.118.022.143-.11.143-.11.117.023.143-.109.26-.087.118.022.143-.11.143-.11-.185-.309-.067-.286-.067-.286l.142-.11.143-.11.143-.11.143-.109.142-.11c2.645-2.371 3.98-3.623 6.742-5.972 1.763-1.581 2.031-4.269.806-6.146-.58-.795-1.444-1.37-2.292-1.395-1.058-.202-2.217.125-3.123 1.048-1.478 1.361-2.217 2.042-3.694 3.404-2.074-1.902-4.534-3.055-7.38-3.461-4.164-.52-8.395.591-11.989 3.466-7.916 5.748-10.057 16.98-5.205 24.751Z" opacity=".2"/><path fill="#9AEDB9" stroke="#0D3CF1" d="m269.103 279.581.018.006.018.005c15.881 4.031 26.23 14.46 31.518 28.249 5.295 13.807 5.517 30.999 1.075 48.498-4.445 17.512-12.209 32.411-22.812 41.912-10.582 9.484-24.011 13.613-39.894 9.581-23.549-5.978-38.889-17.467-47.247-31.775-8.36-14.312-9.773-31.512-5.338-48.984 4.434-17.468 14.574-32.871 28.853-42.139 14.267-9.26 32.704-12.421 53.809-5.353Z"/><path fill="url(#i)" stroke="url(#j)" d="M313.193 359.459c-8.949 35.252-42.315 57.121-74.461 48.961-32.146-8.16-51.042-43.296-42.093-78.548 8.948-35.252 42.315-57.121 74.461-48.961 32.145 8.16 51.042 43.295 42.093 78.548Z"/><path fill="url(#k)" stroke="url(#l)" d="M307.808 358.288c-8.278 32.609-38.491 52.974-67.4 45.635-28.909-7.338-45.752-39.647-37.474-72.257 8.277-32.61 38.491-52.974 67.4-45.635 28.909 7.338 45.752 39.647 37.474 72.257Z"/><path stroke="#0D3CF1" d="m240.954 281.728-9.621-3.974M227.589 287.749l-9.185-4.898M217.194 295.212l-9.185-4.898M208.226 305.378l-9.185-4.897M201.616 315.764l-9.185-4.898M197.376 327.328l-9.995-5.061M194.528 340.168l-9.995-5.061" opacity=".3"/><path stroke="#0D3CF1" d="m194.567 352.724-10.857-5.391M196.108 362.986l-11.402-5.723M200.147 375.1l-12.675-6.338M206.849 386.299l-13.852-6.545"/><path stroke="#0D3CF1" stroke-width="1.3" d="m276.6 327.595-20.017-1m-20.017-1.001 20.017 1.001m0 0-1.334 22.352m-.457 4.736-.838 16.499"/><ellipse cx="255.434" cy="347.058" stroke="#0D3CF1" stroke-width="1.3" rx="27.2956" ry="6.38264" transform="rotate(3.24006 255.434 347.058)"/><g filter="url(#m)"><path fill="url(#n)" stroke="#0D3CF1" stroke-width="1.1315" d="M209.279 407.182c-2.749 16.677-11.055 30.8-24.33 39.824-13.248 9.005-31.503 12.971-54.253 9.252-.004-.003-.007-.006-.01-.008-.083-.067-.207-.168-.368-.301-.322-.265-.795-.659-1.395-1.174-1.201-1.029-2.913-2.537-4.95-4.453-4.075-3.832-9.448-9.289-14.647-15.79-10.4265-13.036-20.0302-30.121-17.3021-46.675 2.7564-16.724 9.4271-31.175 19.5351-40.75 10.091-9.558 23.643-14.294 40.281-11.552 21.856 3.603 37.576 13.203 47.15 26.028 9.573 12.826 13.037 28.925 10.289 45.599Z"/><circle cx="136.992" cy="395.269" r="61.1929" fill="#FFD384" stroke="#0D3CF1" transform="rotate(9.35861 136.992 395.269)"/><circle cx="136.992" cy="395.268" r="57.0803" fill="url(#o)" transform="rotate(9.35861 136.992 395.268)"/><path fill="#0D3CF1" d="M144.433 396.333c2.277.96 3.988 2.486 5.134 4.579 1.22 2.106 1.606 4.364 1.158 6.774-.523 2.818-1.972 5.042-4.346 6.673-2.33 1.6-4.904 2.139-7.722 1.615l-16.519-3.068 7.23-38.934 15.24 2.831c2.707.502 4.827 1.893 6.36 4.173 1.57 2.286 2.107 4.764 1.611 7.434-.385 2.076-1.327 3.839-2.823 5.287s-3.271 2.327-5.323 2.636Zm-.011-18.529-14.127-2.624-3.264 17.576 14.127 2.624c2.373.44 4.571-.034 6.593-1.423 2.023-1.388 3.261-3.307 3.716-5.754.447-2.41-.023-4.626-1.412-6.649-1.419-2.066-3.297-3.316-5.633-3.75Zm-20.986 34.308 15.407 2.861c2.484.461 4.781-.033 6.892-1.482 2.124-1.523 3.417-3.527 3.878-6.012.468-2.521-.022-4.837-1.472-6.947-1.442-2.148-3.405-3.452-5.89-3.914l-15.406-2.861-3.409 18.355Z"/><path fill="#0D3CF1" d="m144.433 396.333-.048-.317-1.129.17 1.052.443.125-.296Zm5.134 4.579-.282.154.004.007.278-.161Zm-3.188 13.447-.182-.265.182.265Zm-24.241-1.453-.316-.058-.059.316.316.058.059-.316Zm7.23-38.934.059-.315-.316-.059-.059.316.316.058Zm21.6 7.004-.267.179.002.003.265-.182Zm-1.212 12.721-.223-.231.223.231Zm-19.461-18.517.058-.316-.316-.058-.058.316.316.058Zm-3.264 17.576-.316-.059-.059.316.316.059.059-.316Zm20.72 1.201-.182-.264.182.264Zm2.304-12.403.265-.182-.265.182Zm-26.619 30.558-.316-.059-.059.316.316.059.059-.316Zm22.299 1.379.182.265.005-.004-.187-.261Zm2.406-12.959-.266.179.002.003.264-.182Zm-21.296-6.775.058-.316-.316-.058-.058.316.316.058Zm17.463 2.872c2.213.933 3.868 2.41 4.977 4.437l.564-.309c-1.182-2.158-2.95-3.733-5.291-4.72l-.25.592Zm4.981 4.444c1.181 2.039 1.554 4.219 1.121 6.554l.631.118c.462-2.485.063-4.821-1.196-6.994l-.556.322Zm1.121 6.554c-.508 2.734-1.908 4.885-4.213 6.467l.364.53c2.444-1.679 3.941-3.977 4.48-6.879l-.631-.118Zm-4.213 6.467c-2.259 1.551-4.746 2.072-7.482 1.564l-.117.632c2.901.539 5.561-.017 7.963-1.666l-.364-.53Zm-7.482 1.564-16.519-3.067-.117.631 16.519 3.068.117-.632Zm-16.262-2.693 7.231-38.934-.632-.117-7.23 38.934.631.117Zm6.856-38.677 15.24 2.831.118-.632-15.24-2.83-.118.631Zm15.24 2.831c2.623.487 4.667 1.829 6.152 4.036l.533-.359c-1.581-2.351-3.776-3.791-6.567-4.309l-.118.632Zm6.154 4.039c1.523 2.217 2.04 4.609 1.56 7.193l.632.117c.512-2.755-.045-5.319-1.662-7.674l-.53.364Zm1.56 7.193c-.373 2.012-1.283 3.714-2.73 5.115l.446.462c1.546-1.496 2.518-3.318 2.916-5.46l-.632-.117Zm-2.73 5.115c-1.449 1.402-3.162 2.25-5.148 2.55l.096.635c2.119-.319 3.954-1.229 5.498-2.723l-.446-.462Zm-5.052-15.978-14.128-2.624-.117.632 14.127 2.624.118-.632Zm-14.502-2.366-3.264 17.575.631.118 3.265-17.576-.632-.117Zm-3.007 17.95 14.127 2.624.118-.632-14.128-2.624-.117.632Zm14.127 2.624c2.459.456 4.743-.037 6.834-1.474l-.364-.529c-1.953 1.341-4.065 1.796-6.352 1.371l-.118.632Zm6.834-1.474c2.094-1.438 3.38-3.43 3.85-5.96l-.632-.117c-.439 2.364-1.63 4.208-3.582 5.548l.364.529Zm3.85-5.96c.463-2.494-.026-4.797-1.463-6.89l-.53.364c1.341 1.952 1.793 4.082 1.361 6.409l.632.117Zm-1.463-6.89c-1.465-2.132-3.414-3.434-5.839-3.884l-.118.632c2.248.417 4.053 1.616 5.427 3.616l.53-.364Zm-26.943 31.056 15.407 2.861.117-.632-15.406-2.861-.118.632Zm15.407 2.861c2.569.477 4.953-.036 7.133-1.533l-.364-.53c-2.041 1.402-4.252 1.877-6.652 1.431l-.117.632Zm7.138-1.537c2.189-1.57 3.53-3.645 4.007-6.214l-.632-.117c-.446 2.4-1.69 4.332-3.75 5.809l.375.522Zm4.007-6.214c.484-2.605-.025-5.007-1.523-7.188l-.529.364c1.401 2.04 1.873 4.269 1.42 6.707l.632.117Zm-1.521-7.185c-1.489-2.218-3.527-3.573-6.098-4.05l-.117.631c2.397.446 4.286 1.699 5.682 3.777l.533-.358Zm-6.098-4.05-15.407-2.862-.117.632 15.407 2.861.117-.631Zm-15.781-2.604-3.409 18.354.632.117 3.408-18.354-.631-.117Z"/><path stroke="#0D3CF1" stroke-width="1.6064" d="m144.386 366.944-1.597 9.692M135.087 414.672l-1.632 8.899M137.925 365.879l-1.597 9.692M129.707 413.458l-1.724 9.214"/><path stroke="#0D3CF1" d="m195.829 358.127-11.746-1.936"/><path stroke="#0D3CF1" stroke-linecap="round" d="m187.25 349.776-11.598-1.911"/><path stroke="#0D3CF1" d="m201.7 365.574-12.782-2.107M206.2 373.87l-12.782-2.107M208.387 381.29l-12.781-2.107M210.212 389.357l-12.782-2.106M210.594 397.5l-12.781-2.106M209.954 406.572l-12.782-2.106M207.587 415.753l-12.782-2.107M204.462 424.259l-12.782-2.107M198.993 433.242l-12.782-2.106M193.012 440.221l-12.781-2.107M185.364 446.794l-12.782-2.106M176.305 451.875l-12.141-2.001"/></g><path stroke="#0D3CF1" d="M218.89 14c0 20.6925-2.299 22.9917-22.992 22.9917 20.693 0 22.992 2.2992 22.992 22.9917 0-20.6925 2.299-22.9917 22.992-22.9917-20.693 0-22.992-2.2992-22.992-22.9917ZM91.6935 272.112c0 18.343-2.0381 20.381-20.381 20.381 18.3429 0 20.381 2.038 20.381 20.381 0-18.343 2.0381-20.381 20.3805-20.381-18.3424 0-20.3805-2.038-20.3805-20.381ZM33.1105 337.616c0 29.68-3.2977 32.978-32.977688 32.978 29.679988 0 32.977688 3.298 32.977688 32.978 0-29.68 3.2978-32.978 32.9778-32.978-29.68 0-32.9778-3.298-32.9778-32.978Z" opacity=".5"/><defs><linearGradient id="a" x1="348.5" x2="418.251" y1="81" y2="362.855" gradientUnits="userSpaceOnUse"><stop stop-color="#C4D0FF"/><stop offset="1" stop-color="#345BF3"/></linearGradient><linearGradient id="b" x1="570.626" x2="289.431" y1="-8.85071" y2="72.378" gradientUnits="userSpaceOnUse"><stop stop-color="#08C067"/><stop offset="1" stop-color="#AAFFD6" stop-opacity=".15"/></linearGradient><linearGradient id="c" x1="336.123" x2="266.435" y1="189.485" y2="61.2684" gradientUnits="userSpaceOnUse"><stop stop-color="#0D3CF1"/><stop offset="1" stop-color="#0D3CF1" stop-opacity=".28"/></linearGradient><linearGradient id="d" x1="469.5" x2="127.537" y1="347.494" y2="156.855" gradientUnits="userSpaceOnUse"><stop stop-color="#88A3FF"/><stop offset="1" stop-color="#fff"/></linearGradient><linearGradient id="f" x1="335.49" x2="428.056" y1="293.03" y2="327.858" gradientUnits="userSpaceOnUse"><stop stop-color="#0D3CF1"/><stop offset="1" stop-color="#0D3CF1" stop-opacity="0"/></linearGradient><linearGradient id="g" x1="381.034" x2="650.424" y1="-43.0279" y2="199.299" gradientUnits="userSpaceOnUse"><stop stop-color="#CFFFE1"/><stop offset="1" stop-color="#E7F7ED"/></linearGradient><linearGradient id="h" x1="490.035" x2="499.956" y1="145.045" y2="317.201" gradientUnits="userSpaceOnUse"><stop stop-color="#0D3CF1"/><stop offset="1" stop-color="#0D3CF1" stop-opacity=".32"/></linearGradient><linearGradient id="i" x1="294.506" x2="317.258" y1="263.061" y2="422.252" gradientUnits="userSpaceOnUse"><stop stop-color="#97FDBD"/><stop offset="1" stop-color="#E7F7ED"/></linearGradient><linearGradient id="j" x1="203.851" x2="238.609" y1="314.121" y2="408.905" gradientUnits="userSpaceOnUse"><stop stop-color="#0D3CF1"/><stop offset="1" stop-color="#0D3CF1" stop-opacity=".66"/></linearGradient><linearGradient id="k" x1="294.5" x2="153.146" y1="431.176" y2="328.041" gradientUnits="userSpaceOnUse"><stop stop-color="#97FDBD"/><stop offset="1" stop-color="#E7F7ED"/></linearGradient><linearGradient id="l" x1="270.457" x2="225.621" y1="285.546" y2="529.285" gradientUnits="userSpaceOnUse"><stop stop-color="#0D3CF1"/><stop offset="1" stop-color="#0D3CF1" stop-opacity=".32"/></linearGradient><linearGradient id="n" x1="160.717" x2="128.013" y1="336.445" y2="456.389" gradientUnits="userSpaceOnUse"><stop stop-color="#FFCBBD"/><stop offset="1" stop-color="#FFD4ED"/></linearGradient><linearGradient id="o" x1="194.072" x2="145.541" y1="572.117" y2="334.05" gradientUnits="userSpaceOnUse"><stop stop-color="#FFC7F3"/><stop offset="1" stop-color="#FFF0DD"/></linearGradient><radialGradient id="e" cx="0" cy="0" r="1" gradientTransform="matrix(64.2496802 63.69698684 -68.71035555 69.30654949 352.608 296.115)" gradientUnits="userSpaceOnUse"><stop stop-color="#FBFFF4"/><stop offset=".239583" stop-color="#CDDFF9"/><stop offset="1" stop-color="#C0CDFF"/></radialGradient><filter id="m" width="143.469" height="140.647" x="75.2891" y="333.567" color-interpolation-filters="sRGB" filterUnits="userSpaceOnUse"><feFlood flood-opacity="0" result="BackgroundImageFix"/><feColorMatrix in="SourceAlpha" result="hardAlpha" values="0 0 0 0 0 0 0 0 0 0 0 0 0 0 0 0 0 0 127 0"/><feOffset dx="8" dy="16"/><feComposite in2="hardAlpha" operator="out"/><feColorMatrix values="0 0 0 0 0.168993 0 0 0 0 0.269007 0 0 0 0 0.654167 0 0 0 0.1 0"/><feBlend in2="BackgroundImageFix" result="effect1_dropShadow_2837_153211"/><feBlend in="SourceGraphic" in2="effect1_dropShadow_2837_153211" result="shape"/></filter></defs></svg>